<?xml version="1.0" encoding="UTF-8" standalone="no"?>
<svg 
   viewBox="1 0 16 18"
   xmlns:dc="http://purl.org/dc/elements/1.1/"
   xmlns:cc="http://creativecommons.org/ns#"
   xmlns:rdf="http://www.w3.org/1999/02/22-rdf-syntax-ns#"
   xmlns:svg="http://www.w3.org/2000/svg"
   xmlns="http://www.w3.org/2000/svg"
   xmlns:sodipodi="http://sodipodi.sourceforge.net/DTD/sodipodi-0.dtd"
   xmlns:inkscape="http://www.inkscape.org/namespaces/inkscape"
   id="svg"
   version="1.1"
   width="18"
   height="16"
   inkscape:version="0.91 r"
   sodipodi:docname="brag.svg">
  <metadata
     id="metadata3450">
    <rdf:RDF>
      <cc:Work
         rdf:about="">
        <dc:format>image/svg+xml</dc:format>
        <dc:type
           rdf:resource="http://purl.org/dc/dcmitype/StillImage" />
        <dc:title></dc:title>
      </cc:Work>
    </rdf:RDF>
  </metadata>
  <defs
     id="defs3448" />
  <sodipodi:namedview
     pagecolor="#ffffff"
     bordercolor="#666666"
     borderopacity="1"
     objecttolerance="10"
     gridtolerance="10"
     guidetolerance="10"
     inkscape:pageopacity="0"
     inkscape:pageshadow="2"
     inkscape:window-width="1341"
     inkscape:window-height="1028"
     id="namedview3446"
     showgrid="false"
     inkscape:zoom="17.463917"
     inkscape:cx="11.303628"
     inkscape:cy="-3.607947"
     inkscape:window-x="578"
     inkscape:window-y="0"
     inkscape:window-maximized="0"
     inkscape:current-layer="layer1" />
  <g
     id="svgg"
     style="fill:#000000;fill-opacity:0.94117647"
     transform="matrix(0.04517762,0,0,0.0412325,-0.05840964,0.05052453)">
    <path
       id="path0"
       d="M 137,0.943 C 9.126,14.579 -44.631,168.253 46.536,259.554 c 73.478,73.586 207.45,47.633 243.451,-47.16 4.124,-10.859 5.369,-11.839 16.997,-13.378 17.503,-2.317 41.656,-9.111 64.016,-18.006 11.559,-4.599 13.376,-5.851 15.978,-11.01 3.549,-7.037 3.502,-7.777 -0.475,-7.339 -2.615,0.288 -3.711,-0.041 -4.176,-1.252 -0.742,-1.932 -3.228,1.726 -3.292,4.841 -0.058,2.901 -2.03,1.965 -2.105,-1 -0.062,-2.419 -0.171,-2.509 -0.902,-0.75 -0.685,1.648 -0.959,1.253 -1.558,-2.25 -0.399,-2.338 -1.118,-4.25 -1.598,-4.25 -0.48,0 -0.901,-0.787 -0.935,-1.75 -0.046,-1.258 -0.37,-1.047 -1.153,0.75 -0.903,2.074 -1.161,2.2 -1.512,0.738 -0.233,-0.969 -0.839,-1.505 -1.348,-1.191 -0.508,0.314 -0.924,-0.221 -0.924,-1.188 0,-1.368 -0.267,-1.492 -1.2,-0.559 -0.933,0.933 -1.471,0.589 -2.419,-1.55 -1.152,-2.6 -1.223,-2.625 -1.3,-0.456 -0.057,1.607 -0.605,2.206 -1.831,2 -1.5,-0.252 -1.792,0.671 -2.046,6.456 -0.261,5.97 -2.204,10.049 -2.204,4.628 0,-1.562 -0.33,-1.86 -1.25,-1.129 -0.687,0.547 -2.139,0.852 -3.225,0.678 -1.087,-0.174 -2.324,0.221 -2.75,0.878 -0.587,0.904 -0.988,0.864 -1.652,-0.166 -1.06,-1.643 -0.258,-5.34 0.991,-4.569 0.487,0.302 0.9,-0.266 0.918,-1.261 0.03,-1.724 0.098,-1.721 1.438,0.048 1.272,1.679 1.472,1.274 2.097,-4.25 0.623,-5.503 2.41,-8.685 2.448,-4.357 0.009,0.963 0.48,2.425 1.048,3.25 0.735,1.068 0.947,-1.164 0.735,-7.751 -0.164,-5.087 0.039,-9.25 0.452,-9.25 0.413,0.001 0.75,0.703 0.75,1.56 0,0.857 0.45,1.281 1,0.941 0.55,-0.34 1.007,-1.604 1.015,-2.809 0.029,-4.112 1.95,0.497 2.005,4.809 0.048,3.771 0.123,3.869 1.317,1.719 1.548,-2.789 2.663,-1.904 2.663,2.114 0,1.65 0.284,2.716 0.631,2.369 0.348,-0.347 1.473,-0.182 2.5,0.368 1.522,0.815 1.869,0.646 1.869,-0.912 0,-1.052 0.635,-2.44 1.41,-3.083 1.498,-1.244 1.649,-0.846 3.184,8.425 0.854,5.156 2.084,7.672 2.69,5.5 3.087,-11.076 4.628,-12.728 6.061,-6.5 1.121,4.875 0.866,4.579 4.317,5.018 8.401,1.071 10.877,-2.157 10.781,-14.056 -0.205,-25.47 -32.473,-46.323 -54.251,-35.061 -3.606,1.865 -26.769,4.022 -34.535,3.216 -10.342,-1.072 -13.885,-3.326 -16.051,-10.208 C 274.848,38.634 204.44,-6.248 137,0.943 m 38.687,11.608 c 43.453,6.452 84.937,37.041 104.341,76.939 6.443,13.249 6.903,14.931 3.821,13.993 C 263.846,97.396 257.9,93.194 252.358,81.229 246.945,69.543 245.28,67.622 238.298,65.01 231.414,62.435 224.539,62.431 219.5,65 c -5.865,2.99 -8.515,2.593 -12.94,-1.938 -4.83,-4.947 -10.667,-7.47 -24.513,-10.595 C 168.823,49.482 170,49.474 170,52.545 c 0,6.647 -10.37,12.766 -21.229,12.527 -4.949,-0.108 -19.184,0.792 -31.634,2.001 L 94.5,69.272 90.348,73.248 c -3.341,3.2 -5.098,4.08 -9,4.513 -3.881,0.43 -5.786,1.377 -9.551,4.748 -5.764,5.162 -13.985,8.357 -25.396,9.869 l -8.62,1.143 -2.481,6.202 C 31.557,109.078 21.106,119.439 18.272,116.605 15.622,113.955 30.388,82.308 40.717,68.5 72.582,25.903 123.489,4.8 175.687,12.551 m 13.924,52.354 c 8.959,4.193 24.683,20.134 22.254,22.563 -2.246,2.246 -31.007,4.176 -37.084,2.488 C 165.318,87.328 156.652,73 164.526,73 c 2.86,0 3.404,0.406 3.965,2.958 2.162,9.844 18.097,13.168 22.171,4.624 l 1.652,-3.463 4.093,2.073 c 4.083,2.067 4.088,2.068 2.272,0.033 -3.06,-3.427 -10.665,-6.006 -22.637,-7.675 -13.938,-1.944 -13.556,-1.522 -5.879,-6.501 7.412,-4.808 9.449,-4.823 19.448,-0.144 m 168.17,51.613 c 4.924,4.924 4.999,6.462 0.217,4.481 -3.291,-1.363 -6.998,-5.407 -6.998,-7.634 0,-2.458 2.187,-1.441 6.781,3.153 m -255.354,5.732 c -0.923,5.242 -1.161,25.75 -0.299,25.75 0.345,0 1.187,-0.675 1.872,-1.5 1.755,-2.114 2.908,-1.863 2.29,0.5 -0.364,1.391 -0.031,2 1.093,2 0.89,0 1.617,0.675 1.617,1.5 0,0.825 0.647,1.5 1.439,1.5 1.668,0 3.049,7.219 2.325,12.154 -0.72,4.905 1.872,0.798 3.86,-6.117 1.952,-6.79 2.88,-8.607 4.24,-8.301 0.998,0.224 3.082,-5.535 3.162,-8.736 0.028,-1.13 0.42,-1.007 1.589,0.5 1.117,1.44 1.401,3.33 1.015,6.75 -0.549,4.863 -0.008,5.701 2.256,3.5 1.04,-1.01 1.234,-0.771 1.013,1.25 -0.958,8.796 4.991,8.572 6.628,-0.25 1.009,-5.439 4.176,-5.324 3.656,0.133 -0.644,6.747 1.267,5.248 3.78,-2.966 2.603,-8.509 3.141,-9.141 4.817,-5.667 0.916,1.901 1.095,1.965 1.152,0.417 0.038,-1.014 0.627,-1.639 1.318,-1.399 0.688,0.239 1.207,1.468 1.155,2.732 -0.089,2.123 0.003,2.163 1.202,0.523 0.736,-1.007 1.963,-1.518 2.839,-1.182 1.175,0.451 1.691,-0.346 2.172,-3.357 0.754,-4.713 2.382,-4.304 2.382,0.598 0,3.43 0.024,3.448 2.407,1.887 3.373,-2.21 3.853,-0.993 4.393,11.134 0.362,8.138 0.736,10.128 1.828,9.71 0.754,-0.29 1.378,-1.491 1.386,-2.67 0.02,-3.217 1.105,-6.643 2.103,-6.643 0.485,0 0.901,2.137 0.924,4.75 l 0.041,4.75 2.541,-5.91 c 4.259,-9.908 7.338,-13.373 7.409,-8.34 0.106,7.522 6.251,7.7 8.6,0.25 1.927,-6.115 2.992,-6.846 4.018,-2.76 1.442,5.749 4.35,5.868 4.35,0.178 0,-3.599 1.822,-1.929 2.545,2.332 0.691,4.077 0.763,4.148 1.775,1.75 l 1.056,-2.5 0.347,3 c 0.191,1.65 0.747,3.9 1.236,5 0.489,1.1 1.16,5.03 1.491,8.734 0.773,8.646 2.393,13.254 2.487,7.075 0.034,-2.305 0.513,-4.469 1.063,-4.809 0.55,-0.34 1,0.309 1,1.441 0,1.132 0.45,2.059 1,2.059 0.55,0 1,1.125 1,2.5 0,5.651 1.816,1.96 2.47,-5.021 0.986,-10.519 5.496,-18.384 5.545,-9.67 0.029,5.083 1.787,0.14 2.51,-7.055 0.514,-5.121 1.116,-7.029 2.334,-7.4 0.902,-0.275 2.428,-0.921 3.391,-1.435 1.499,-0.802 1.752,-0.469 1.761,2.323 0.036,10.763 2.427,13.835 3.435,4.414 l 0.68,-6.343 4.937,-0.175 4.937,-0.175 0,7.019 c 0,7.513 0.226,7.94 2.821,5.331 1.575,-1.582 1.699,-1.55 2,0.515 0.457,3.128 2.179,1.637 2.179,-1.887 0,-1.618 0.45,-2.941 1,-2.941 0.55,0 1,1.125 1,2.5 0,1.375 0.45,2.5 1,2.5 0.55,0 1.014,-2.137 1.032,-4.75 0.029,-4.394 0.142,-4.605 1.5,-2.809 0.807,1.068 1.468,3.404 1.468,5.191 0,1.788 0.427,3.514 0.949,3.837 0.864,0.534 1.365,-1.268 2.355,-8.469 0.444,-3.23 1.298,-1.179 2.288,5.5 0.408,2.75 0.925,4.213 1.148,3.25 0.764,-3.288 2.107,-1.755 3.065,3.5 0.576,3.157 1.005,4.153 1.076,2.5 0.07,-1.621 0.688,-2.75 1.505,-2.75 0.871,0 1.631,-1.625 2.041,-4.365 0.892,-5.944 3.495,-9.579 3.541,-4.944 0.018,1.755 0.482,3.469 1.032,3.809 0.567,0.351 1,-0.49 1,-1.941 0,-1.407 0.402,-2.559 0.893,-2.559 1.083,0 2.107,2.469 2.107,5.082 0,1.055 0.627,1.918 1.393,1.918 1.603,0 2.607,2.127 2.607,5.523 0,3.525 1.706,3.903 3.412,0.757 l 1.508,-2.78 0.07,3.5 c 0.059,2.898 0.248,3.195 1.102,1.729 0.567,-0.974 1.44,-1.518 1.94,-1.209 0.91,0.562 1.329,-0.761 2.456,-7.77 0.842,-5.239 2.132,-4.672 2.922,1.285 0.629,4.74 2.59,6.183 2.59,1.906 0,-1.274 0.687,-1.941 2,-1.941 1.333,0 2,0.667 2,2 0,1.137 0.667,2 1.545,2 1.215,0 1.41,-0.725 0.911,-3.385 -0.96,-5.114 1.229,-5.437 2.664,-0.394 2.07,7.277 3.186,6.945 4.1,-1.221 0.196,-1.749 0.805,-2.412 2.03,-2.206 1.285,0.216 1.75,-0.382 1.75,-2.25 0,-1.502 0.512,-2.442 1.25,-2.294 0.748,0.15 1.376,-1.054 1.563,-3 0.36,-3.73 1.84,-4.327 2.481,-1 0.239,1.238 0.495,0.311 0.57,-2.059 0.15,-4.74 2.136,-4.976 2.136,-0.254 0,1.55 0.675,3.378 1.5,4.063 0.825,0.685 1.5,2.652 1.501,4.372 0,1.721 0.879,5.378 1.953,8.128 l 1.952,5 0.079,-3.5 c 0.069,-3.054 0.241,-3.286 1.354,-1.822 1.702,2.238 3.245,1.08 4.157,-3.12 l 0.747,-3.442 1.46,2.788 c 2.515,4.799 -2.181,11.718 -5.619,8.28 -0.779,-0.779 -1.084,-0.481 -1.084,1.057 0,6.515 -5.169,-0.658 -6.5,-9.019 -0.621,-3.903 -2.5,-4.251 -2.5,-0.463 0,2.489 -1.552,1.294 -2.287,-1.759 -0.305,-1.269 -0.523,-0.786 -0.597,1.321 -0.143,4.086 -2.79,7.266 -4.237,5.091 -0.643,-0.965 -0.738,-0.542 -0.301,1.338 0.494,2.125 0.273,2.75 -0.97,2.75 -0.884,0 -1.608,0.398 -1.608,0.883 0,2.145 -4.532,2.032 -6.228,-0.155 -1.66,-2.141 -1.731,-2.15 -1.829,-0.228 -0.059,1.17 -0.318,1.459 -0.623,0.697 -0.391,-0.975 -0.866,-0.849 -1.889,0.5 -1.302,1.717 -1.369,1.707 -1.403,-0.197 -0.028,-1.567 -0.513,-1.243 -2.243,1.5 l -2.207,3.5 -0.633,-3.5 -0.633,-3.5 -1.272,3.301 c -0.699,1.816 -1.515,3.057 -1.814,2.759 -0.298,-0.299 -1.18,-0.013 -1.96,0.634 -1.104,0.916 -1.615,0.86 -2.303,-0.253 -0.741,-1.2 -1.1,-1.135 -2.223,0.401 -1.267,1.731 -1.404,1.69 -2.519,-0.755 -0.701,-1.541 -1.996,-2.587 -3.2,-2.587 -1.69,0 -2.043,-0.697 -2.157,-4.25 -0.075,-2.338 -0.331,-3.238 -0.57,-2 -0.535,2.777 -1.424,2.845 -3.294,0.25 -2.131,-2.956 -2.999,-2.452 -3.009,1.75 -0.026,11.211 -2.82,19.663 -3.141,9.5 -0.092,-2.934 -0.309,-3.699 -0.566,-2 -0.607,4.007 -2.284,3.366 -2.284,-0.872 0,-3.077 -0.222,-3.439 -1.472,-2.401 -1.245,1.033 -1.574,0.585 -2.132,-2.9 -0.854,-5.341 -2.006,-5.967 -2.837,-1.54 -0.725,3.862 -2.559,3.794 -2.559,-0.096 0,-2.761 -1.469,-3.266 -2.405,-0.828 -0.393,1.024 -1.346,1.424 -2.607,1.094 -1.527,-0.399 -1.992,-0.02 -2.003,1.637 -0.009,1.186 -0.452,2.831 -0.985,3.656 -0.792,1.226 -0.972,1.11 -0.985,-0.636 -0.008,-1.174 -0.636,-3.332 -1.395,-4.796 l -1.38,-2.66 -0.671,3.574 c -0.81,4.319 -2.569,3.702 -2.569,-0.901 0,-6.764 -1.207,-12.439 -2.538,-11.928 -0.708,0.272 -1.499,-0.327 -1.759,-1.33 -0.387,-1.498 -0.492,-1.432 -0.587,0.368 -0.141,2.667 -2.11,4.162 -2.131,1.618 -0.013,-1.534 -0.163,-1.581 -0.985,-0.309 -0.533,0.825 -0.976,3.412 -0.985,5.75 -0.008,2.338 -0.465,4.25 -1.015,4.25 -0.55,0 -1,1.152 -1,2.559 0,1.451 -0.433,2.292 -1,1.941 -0.55,-0.34 -1.03,-2.954 -1.068,-5.809 -0.058,-4.472 -0.218,-4.88 -1.152,-2.941 -1.648,3.415 -2.78,2.702 -2.78,-1.75 0,-2.2 -0.45,-4 -1,-4 -0.55,0 -1,1.376 -1,3.057 0,5.891 -2.087,11.943 -4.119,11.943 -1.034,0 -1.881,0.477 -1.881,1.059 0,0.582 -0.409,0.806 -0.909,0.497 -0.5,-0.309 -1.441,2.59 -2.091,6.441 -1.025,6.079 -2.844,9.477 -3.079,5.753 -0.063,-1 -0.18,-1 -0.583,0 -0.278,0.688 -1.142,1.25 -1.921,1.25 -0.78,0 -1.417,0.45 -1.417,1 0,5.023 -2.893,-0.382 -3.994,-7.463 -0.724,-4.655 -1.697,-8.228 -2.161,-7.941 -0.465,0.287 -0.881,-0.967 -0.924,-2.787 -0.043,-1.82 -0.306,-2.746 -0.583,-2.059 -1.222,3.027 -2.35,0.76 -2.488,-5 -0.082,-3.437 -0.318,-4.9 -0.524,-3.25 -0.985,7.89 -3.665,10.511 -4.857,4.75 -0.313,-1.512 -0.951,-4.1 -1.417,-5.75 l -0.848,-3 -0.102,2.691 c -0.056,1.48 -0.552,2.969 -1.102,3.309 -0.55,0.34 -1,1.491 -1,2.559 0,1.068 -0.675,1.941 -1.5,1.941 -0.825,0 -1.5,0.675 -1.5,1.5 0,0.825 -0.338,1.486 -0.75,1.468 C 186.651,166.9 184,164.2 184,162.64 c 0,-0.902 -0.45,-1.64 -1,-1.64 -0.55,0 -1,-0.927 -1,-2.059 0,-3.065 -1.467,-1.585 -2.983,3.009 -0.736,2.227 -1.63,4.05 -1.988,4.05 -0.358,0 -1.228,2.251 -1.933,5.002 -1.333,5.2 -3.063,5.855 -3.141,1.189 l -0.045,-2.691 -1.205,2.5 c -3.049,6.326 -4.705,3.731 -4.705,-7.374 0,-13.758 -1.296,-17.154 -4.028,-10.559 -1.402,3.385 -2.929,2.371 -2.957,-1.963 l -0.015,-2.396 -2.5,2.697 c -1.375,1.484 -2.5,3.35 -2.5,4.147 0,0.796 -0.188,1.448 -0.418,1.448 -0.23,0 -1.13,0.273 -2,0.607 -1.261,0.484 -1.582,-0.119 -1.582,-2.969 0,-2.767 -0.339,-3.445 -1.5,-3 -1.067,0.41 -1.51,-0.104 -1.533,-1.781 -0.033,-2.268 -2.956,5.366 -4.363,11.393 -0.924,3.957 -3.38,3.459 -4.189,-0.849 -0.726,-3.87 -2.371,-2.924 -2.4,1.38 -0.008,1.255 -0.649,2.525 -1.423,2.822 -0.775,0.297 -1.952,1.853 -2.616,3.456 -1.392,3.358 -3.427,2.874 -2.553,-0.607 0.321,-1.281 0.133,-2.609 -0.419,-2.95 -0.552,-0.341 -1.004,-1.943 -1.004,-3.561 0,-1.618 -0.338,-2.888 -0.75,-2.823 -2.317,0.366 -3.158,-0.451 -3.465,-3.368 l -0.341,-3.25 -1.398,4.309 c -0.769,2.37 -2.219,4.748 -3.222,5.285 -1.003,0.537 -1.824,1.812 -1.824,2.834 0,1.022 -0.63,2.1 -1.4,2.395 -0.771,0.296 -1.71,2.369 -2.088,4.607 -1.367,8.089 -3.164,3.792 -2.569,-6.142 0.255,-4.27 -0.75,-6.719 -1.956,-4.767 -1.269,2.053 -2.987,0.073 -2.987,-3.441 0,-3.502 -4.424,-4.244 -5.687,-0.953 -0.977,2.546 -2.433,0.197 -1.765,-2.847 0.461,-2.098 0.325,-2.82 -0.441,-2.346 -1.402,0.866 -1.392,0.502 0.391,-13.934 1.961,-15.872 2.733,-19.5 4.149,-19.5 0.291,0 0.192,1.912 -0.22,4.25 m -32.702,75.145 c 40.477,26.833 93.802,32.525 155.188,16.564 13.947,-3.626 14.283,-3.442 3.882,2.133 -31.947,17.125 -61.079,43.701 -76.875,70.13 -4.057,6.786 -3.942,6.766 -21.426,3.777 C 105.982,285.808 63,265.21 63,257.654 c 0,-4.441 8.511,-12.251 26.343,-24.173 11.002,-7.356 11.122,-7.66 3.927,-9.898 C 72.821,217.219 53.897,201.086 44.169,181.722 38.3,170.039 38.77,169.97 49.75,180.906 c 5.861,5.836 13.829,12.414 19.975,16.489 m 214.19,7.355 c -18.308,48.596 -73.477,87.196 -124.695,87.244 l -6.281,0.006 5.188,-7.75 c 26.457,-39.519 72.071,-72.097 112.373,-80.259 13.404,-2.714 14.695,-2.641 13.415,0.759 M 25,354.542 l 0,33.672 22.75,-0.396 c 27.111,-0.471 30.819,-1.448 34.258,-9.025 3.772,-8.311 2.207,-18.119 -3.623,-22.705 L 75.73,354 l 2.756,-2.168 c 8.368,-6.582 6.947,-22.734 -2.487,-28.276 -3.217,-1.891 -5.41,-2.081 -27.249,-2.371 L 25,320.869 l 0,33.673 m 64,-0.042 0,33.5 7.47,0 7.47,0 0.28,-12.75 0.28,-12.75 7.423,0 7.423,0 7.02,12.75 7.021,12.75 17.197,0 17.197,0 2.852,-8.027 2.852,-8.026 13.386,0.276 13.387,0.277 3.025,7.75 3.025,7.75 8.413,0 c 8.267,0 8.402,-0.039 7.712,-2.25 -0.819,-2.623 -22.508,-54.226 -25.428,-60.5 l -1.979,-4.25 -7.87,0 -7.87,0 -7.06,16.75 c -3.883,9.212 -10.11,24.063 -13.839,33 -3.729,8.938 -7.09,16.25 -7.468,16.25 -2.302,0 -16.273,-26.372 -14.523,-27.414 9.249,-5.514 12.648,-14.687 9.56,-25.805 C 142.943,322.933 137.48,321 109.822,321 L 89,321 l 0,33.5 m 148.183,-31.598 c -22.585,7.8 -24.305,51.063 -2.455,61.753 5.617,2.749 6.194,2.819 26.008,3.193 l 20.264,0.382 0,-20.615 0,-20.615 -17,0 -17,0 0,7 0,7 9,0 9,0 0,6.5 0,6.5 -9.865,0 c -14.778,0 -18.14,-3.564 -18.129,-19.218 C 237.019,335.557 238.972,334 263.077,334 l 17.923,0 0,-6.5 0,-6.5 -19.25,0.033 c -16.023,0.027 -20.141,0.34 -24.567,1.869 m -170.6,13.539 C 71.754,343.524 67.264,347 52.943,347 L 41,347 l 0,-6.584 0,-6.583 12.083,0.333 c 10.581,0.293 12.258,0.575 13.5,2.275 M 128,335.288 c 2.636,1.327 3.649,4.992 2.568,9.296 -0.825,3.29 -6.142,4.607 -17.068,4.228 l -9,-0.312 -0.304,-5.888 c -0.167,-3.238 -0.069,-6.501 0.219,-7.25 0.7,-1.825 19.986,-1.886 23.585,-0.074 M 190.992,348 c 1.784,4.675 3.464,9.063 3.733,9.75 0.367,0.938 -1.56,1.25 -7.725,1.25 -6.139,0 -8.103,-0.316 -7.774,-1.25 4.393,-12.467 7.337,-19.572 7.865,-18.984 0.362,0.404 2.117,4.559 3.901,9.234 M 66,363 c 6.634,6.634 1.451,11 -13.057,11 L 41,374 l 0,-6.5 0,-6.5 11.5,0 c 10.167,0 11.732,0.232 13.5,2"
       style="fill:#129547;fill-opacity:0.94117647;fill-rule:evenodd;stroke:none"
       inkscape:connector-curvature="0" />
  </g>
  <path
     style="opacity:0;fill:#129547;fill-opacity:0.94117647;stroke:#00ff00;stroke-width:0.02796049"
     d="M 5.9287523,12.010831 C 5.5488212,11.948648 5.3431865,11.898198 4.924962,11.764567 4.2644205,11.55351 3.6000674,11.266895 3.1564963,11.001617 2.928843,10.865469 2.8117577,10.749703 2.8117577,10.660763 c 0,-0.15473 0.3567673,-0.457149 1.0711752,-0.9079992 C 4.3541058,9.4554153 4.4074161,9.4132055 4.3835335,9.3564032 4.3751635,9.3364917 4.2452766,9.2812191 4.0949007,9.2335749 3.1532651,8.9352355 2.3789737,8.3084315 1.9112266,7.4658479 1.8383746,7.3346135 1.7866717,7.2200255 1.796333,7.2112079 1.805993,7.2023879 1.9561018,7.3199153 2.129906,7.4723737 2.6898729,7.9635691 3.1388789,8.2645139 3.707462,8.5297255 5.4314068,9.3338474 7.5292052,9.4601306 9.9911672,8.9079916 10.245544,8.8509426 10.476025,8.804411 10.503356,8.8045871 c 0.02732,1.649e-4 -0.112185,0.083526 -0.310015,0.1852209 -1.3946665,0.716949 -2.5543216,1.667266 -3.277636,2.685976 -0.2776413,0.391031 -0.273335,0.38773 -0.5018219,0.385135 -0.1058467,-0.0012 -0.3241536,-0.02374 -0.4851308,-0.05009 z"
     id="path4328"
     inkscape:connector-curvature="0" />
  <path
     style="opacity:0;fill:#129547;fill-opacity:0.94117647;stroke:#00ff00;stroke-width:0.02796049"
     d="M 5.9287523,12.010831 C 5.5488212,11.948648 5.3431865,11.898198 4.924962,11.764567 4.2644205,11.55351 3.6000674,11.266895 3.1564963,11.001617 2.928843,10.865469 2.8117577,10.749703 2.8117577,10.660763 c 0,-0.15473 0.3567673,-0.457149 1.0711752,-0.9079992 C 4.3541058,9.4554153 4.4074161,9.4132055 4.3835335,9.3564032 4.3751635,9.3364917 4.2452766,9.2812191 4.0949007,9.2335749 3.1532651,8.9352355 2.3789737,8.3084315 1.9112266,7.4658479 1.8383746,7.3346135 1.7866717,7.2200255 1.796333,7.2112079 1.805993,7.2023879 1.9561018,7.3199153 2.129906,7.4723737 2.6898729,7.9635691 3.1388789,8.2645139 3.707462,8.5297255 5.4314068,9.3338474 7.5292052,9.4601306 9.9911672,8.9079916 10.245544,8.8509426 10.476025,8.804411 10.503356,8.8045871 c 0.02732,1.649e-4 -0.112185,0.083526 -0.310015,0.1852209 -1.3946665,0.716949 -2.5543216,1.667266 -3.277636,2.685976 -0.2776413,0.391031 -0.273335,0.38773 -0.5018219,0.385135 -0.1058467,-0.0012 -0.3241536,-0.02374 -0.4851308,-0.05009 z"
     id="path4330"
     inkscape:connector-curvature="0" />
  <path
     style="opacity:0;fill:#129547;fill-opacity:0.94117647;stroke:#00ff00;stroke-width:0.02796049"
     d="M 5.9287523,12.010831 C 5.5488212,11.948648 5.3431865,11.898198 4.924962,11.764567 4.2644205,11.55351 3.6000674,11.266895 3.1564963,11.001617 2.928843,10.865469 2.8117577,10.749703 2.8117577,10.660763 c 0,-0.15473 0.3567673,-0.457149 1.0711752,-0.9079992 C 4.3541058,9.4554153 4.4074161,9.4132055 4.3835335,9.3564032 4.3751635,9.3364917 4.2452766,9.2812191 4.0949007,9.2335749 3.1532651,8.9352355 2.3789737,8.3084315 1.9112266,7.4658479 1.8383746,7.3346135 1.7866717,7.2200255 1.796333,7.2112079 1.805993,7.2023879 1.9561018,7.3199153 2.129906,7.4723737 2.6898729,7.9635691 3.1388789,8.2645139 3.707462,8.5297255 5.4314068,9.3338474 7.5292052,9.4601306 9.9911672,8.9079916 10.245544,8.8509426 10.476025,8.804411 10.503356,8.8045871 c 0.02732,1.649e-4 -0.112185,0.083526 -0.310015,0.1852209 -1.3946665,0.716949 -2.5543216,1.667266 -3.277636,2.685976 -0.2776413,0.391031 -0.273335,0.38773 -0.5018219,0.385135 -0.1058467,-0.0012 -0.3241536,-0.02374 -0.4851308,-0.05009 z"
     id="path4332"
     inkscape:connector-curvature="0" />
  <path
     style="opacity:0;fill:#129547;fill-opacity:0.94117647;stroke:#00ff00;stroke-width:0.02796049"
     d="M 5.9287523,12.010831 C 5.5488212,11.948648 5.3431865,11.898198 4.924962,11.764567 4.2644205,11.55351 3.6000674,11.266895 3.1564963,11.001617 2.928843,10.865469 2.8117577,10.749703 2.8117577,10.660763 c 0,-0.15473 0.3567673,-0.457149 1.0711752,-0.9079992 C 4.3541058,9.4554153 4.4074161,9.4132055 4.3835335,9.3564032 4.3751635,9.3364917 4.2452766,9.2812191 4.0949007,9.2335749 3.1532651,8.9352355 2.3789737,8.3084315 1.9112266,7.4658479 1.8383746,7.3346135 1.7866717,7.2200255 1.796333,7.2112079 1.805993,7.2023879 1.9561018,7.3199153 2.129906,7.4723737 2.6898729,7.9635691 3.1388789,8.2645139 3.707462,8.5297255 5.4314068,9.3338474 7.5292052,9.4601306 9.9911672,8.9079916 10.245544,8.8509426 10.476025,8.804411 10.503356,8.8045871 c 0.02732,1.649e-4 -0.112185,0.083526 -0.310015,0.1852209 -1.3946665,0.716949 -2.5543216,1.667266 -3.277636,2.685976 -0.2776413,0.391031 -0.273335,0.38773 -0.5018219,0.385135 -0.1058467,-0.0012 -0.3241536,-0.02374 -0.4851308,-0.05009 z"
     id="path4334"
     inkscape:connector-curvature="0" />
  <path
     style="opacity:0;fill:#129547;fill-opacity:0.94117647;stroke:#00ff00;stroke-width:0.02796049"
     d="M 5.9287523,12.010831 C 5.5488212,11.948648 5.3431865,11.898198 4.924962,11.764567 4.2644205,11.55351 3.6000674,11.266895 3.1564963,11.001617 2.928843,10.865469 2.8117577,10.749703 2.8117577,10.660763 c 0,-0.15473 0.3567673,-0.457149 1.0711752,-0.9079992 C 4.3541058,9.4554153 4.4074161,9.4132055 4.3835335,9.3564032 4.3751635,9.3364917 4.2452766,9.2812191 4.0949007,9.2335749 3.1532651,8.9352355 2.3789737,8.3084315 1.9112266,7.4658479 1.8383746,7.3346135 1.7866717,7.2200255 1.796333,7.2112079 1.805993,7.2023879 1.9561018,7.3199153 2.129906,7.4723737 2.6898729,7.9635691 3.1388789,8.2645139 3.707462,8.5297255 5.4314068,9.3338474 7.5292052,9.4601306 9.9911672,8.9079916 10.245544,8.8509426 10.476025,8.804411 10.503356,8.8045871 c 0.02732,1.649e-4 -0.112185,0.083526 -0.310015,0.1852209 -1.3946665,0.716949 -2.5543216,1.667266 -3.277636,2.685976 -0.2776413,0.391031 -0.273335,0.38773 -0.5018219,0.385135 -0.1058467,-0.0012 -0.3241536,-0.02374 -0.4851308,-0.05009 z"
     id="path4336"
     inkscape:connector-curvature="0" />
  <path
     style="opacity:0;fill:#129547;fill-opacity:0.94117647;stroke:#00ff00;stroke-width:0.02796049"
     d="M 5.9287523,12.010831 C 5.5488212,11.948648 5.3431865,11.898198 4.924962,11.764567 4.2644205,11.55351 3.6000674,11.266895 3.1564963,11.001617 2.928843,10.865469 2.8117577,10.749703 2.8117577,10.660763 c 0,-0.15473 0.3567673,-0.457149 1.0711752,-0.9079992 C 4.3541058,9.4554153 4.4074161,9.4132055 4.3835335,9.3564032 4.3751635,9.3364917 4.2452766,9.2812191 4.0949007,9.2335749 3.1532651,8.9352355 2.3789737,8.3084315 1.9112266,7.4658479 1.8383746,7.3346135 1.7866717,7.2200255 1.796333,7.2112079 1.805993,7.2023879 1.9561018,7.3199153 2.129906,7.4723737 2.6898729,7.9635691 3.1388789,8.2645139 3.707462,8.5297255 5.4314068,9.3338474 7.5292052,9.4601306 9.9911672,8.9079916 10.245544,8.8509426 10.476025,8.804411 10.503356,8.8045871 c 0.02732,1.649e-4 -0.112185,0.083526 -0.310015,0.1852209 -1.3946665,0.716949 -2.5543216,1.667266 -3.277636,2.685976 -0.2776413,0.391031 -0.273335,0.38773 -0.5018219,0.385135 -0.1058467,-0.0012 -0.3241536,-0.02374 -0.4851308,-0.05009 z"
     id="path4338"
     inkscape:connector-curvature="0" />
  <path
     style="opacity:0;fill:#129547;fill-opacity:0.94117647;stroke:#00ff00;stroke-width:0.02796049"
     d="M 5.9287523,12.010831 C 5.5488212,11.948648 5.3431865,11.898198 4.924962,11.764567 4.2644205,11.55351 3.6000674,11.266895 3.1564963,11.001617 2.928843,10.865469 2.8117577,10.749703 2.8117577,10.660763 c 0,-0.15473 0.3567673,-0.457149 1.0711752,-0.9079992 C 4.3541058,9.4554153 4.4074161,9.4132055 4.3835335,9.3564032 4.3751635,9.3364917 4.2452766,9.2812191 4.0949007,9.2335749 3.1532651,8.9352355 2.3789737,8.3084315 1.9112266,7.4658479 1.8383746,7.3346135 1.7866717,7.2200255 1.796333,7.2112079 1.805993,7.2023879 1.9561018,7.3199153 2.129906,7.4723737 2.6898729,7.9635691 3.1388789,8.2645139 3.707462,8.5297255 5.4314068,9.3338474 7.5292052,9.4601306 9.9911672,8.9079916 10.245544,8.8509426 10.476025,8.804411 10.503356,8.8045871 c 0.02732,1.649e-4 -0.112185,0.083526 -0.310015,0.1852209 -1.3946665,0.716949 -2.5543216,1.667266 -3.277636,2.685976 -0.2776413,0.391031 -0.273335,0.38773 -0.5018219,0.385135 -0.1058467,-0.0012 -0.3241536,-0.02374 -0.4851308,-0.05009 z"
     id="path4340"
     inkscape:connector-curvature="0" />
  <path
     style="opacity:0;fill:#129547;fill-opacity:0.94117647;stroke:#00ff00;stroke-width:0.02796049"
     d="M 5.9287523,12.010831 C 5.5488212,11.948648 5.3431865,11.898198 4.924962,11.764567 4.2644205,11.55351 3.6000674,11.266895 3.1564963,11.001617 2.928843,10.865469 2.8117577,10.749703 2.8117577,10.660763 c 0,-0.15473 0.3567673,-0.457149 1.0711752,-0.9079992 C 4.3541058,9.4554153 4.4074161,9.4132055 4.3835335,9.3564032 4.3751635,9.3364917 4.2452766,9.2812191 4.0949007,9.2335749 3.1532651,8.9352355 2.3789737,8.3084315 1.9112266,7.4658479 1.8383746,7.3346135 1.7866717,7.2200255 1.796333,7.2112079 1.805993,7.2023879 1.9561018,7.3199153 2.129906,7.4723737 2.6898729,7.9635691 3.1388789,8.2645139 3.707462,8.5297255 5.4314068,9.3338474 7.5292052,9.4601306 9.9911672,8.9079916 10.245544,8.8509426 10.476025,8.804411 10.503356,8.8045871 c 0.02732,1.649e-4 -0.112185,0.083526 -0.310015,0.1852209 -1.3946665,0.716949 -2.5543216,1.667266 -3.277636,2.685976 -0.2776413,0.391031 -0.273335,0.38773 -0.5018219,0.385135 -0.1058467,-0.0012 -0.3241536,-0.02374 -0.4851308,-0.05009 z"
     id="path4342"
     inkscape:connector-curvature="0" />
  <path
     style="opacity:0;fill:#129547;fill-opacity:0.94117647;stroke:#00ff00;stroke-width:0.02796049"
     d="M 5.9287523,12.010831 C 5.5488212,11.948648 5.3431865,11.898198 4.924962,11.764567 4.2644205,11.55351 3.6000674,11.266895 3.1564963,11.001617 2.928843,10.865469 2.8117577,10.749703 2.8117577,10.660763 c 0,-0.15473 0.3567673,-0.457149 1.0711752,-0.9079992 C 4.3541058,9.4554153 4.4074161,9.4132055 4.3835335,9.3564032 4.3751635,9.3364917 4.2452766,9.2812191 4.0949007,9.2335749 3.1532651,8.9352355 2.3789737,8.3084315 1.9112266,7.4658479 1.8383746,7.3346135 1.7866717,7.2200255 1.796333,7.2112079 1.805993,7.2023879 1.9561018,7.3199153 2.129906,7.4723737 2.6898729,7.9635691 3.1388789,8.2645139 3.707462,8.5297255 5.4314068,9.3338474 7.5292052,9.4601306 9.9911672,8.9079916 10.245544,8.8509426 10.476025,8.804411 10.503356,8.8045871 c 0.02732,1.649e-4 -0.112185,0.083526 -0.310015,0.1852209 -1.3946665,0.716949 -2.5543216,1.667266 -3.277636,2.685976 -0.2776413,0.391031 -0.273335,0.38773 -0.5018219,0.385135 -0.1058467,-0.0012 -0.3241536,-0.02374 -0.4851308,-0.05009 z"
     id="path4344"
     inkscape:connector-curvature="0" />
  <g
     inkscape:groupmode="layer"
     id="layer1"
     inkscape:label="tummy"
     transform="translate(0,-372)">
    <path
       style="opacity:0;fill:#129547;fill-opacity:0.94117647;stroke:#00ff00;stroke-width:0.02796049"
       d="M 5.9287523,384.01083 C 5.5488212,383.94863 5.3431865,383.8982 4.924962,383.76457 4.2644205,383.55351 3.6000674,383.2669 3.1564963,383.00162 2.928843,382.86547 2.8117577,382.74971 2.8117577,382.66077 c 0,-0.15473 0.3567673,-0.45715 1.0711752,-0.908 0.4711729,-0.29735 0.5244832,-0.33956 0.5006006,-0.39636 -0.00837,-0.0199 -0.1382569,-0.0752 -0.2886328,-0.12283 -0.9416356,-0.29834 -1.715927,-0.92515 -2.1836741,-1.76773 -0.072852,-0.13123 -0.1245549,-0.24582 -0.1148936,-0.25464 0.00966,-0.009 0.1597688,0.10871 0.333573,0.26117 0.5599669,0.49119 1.0089729,0.79214 1.577556,1.05735 1.7239448,0.80412 3.8217432,0.9304 6.2837052,0.37826 0.2543768,-0.057 0.4848578,-0.10358 0.5121888,-0.1034 0.02732,1.6e-4 -0.112185,0.0835 -0.310015,0.18522 -1.3946665,0.71695 -2.5543216,1.66727 -3.277636,2.68598 -0.2776413,0.39103 -0.273335,0.38773 -0.5018219,0.38513 -0.1058467,-0.001 -0.3241536,-0.0237 -0.4851308,-0.0501 z"
       id="path4347"
       inkscape:connector-curvature="0" />
    <path
       style="opacity:0;fill:#129547;fill-opacity:0.94117647;stroke:#00ff00;stroke-width:0.02796049"
       d="M 5.9287523,384.01083 C 5.5488212,383.94863 5.3431865,383.8982 4.924962,383.76457 4.2644205,383.55351 3.6000674,383.2669 3.1564963,383.00162 2.928843,382.86547 2.8117577,382.74971 2.8117577,382.66077 c 0,-0.15473 0.3567673,-0.45715 1.0711752,-0.908 0.4711729,-0.29735 0.5244832,-0.33956 0.5006006,-0.39636 -0.00837,-0.0199 -0.1382569,-0.0752 -0.2886328,-0.12283 -0.9416356,-0.29834 -1.715927,-0.92515 -2.1836741,-1.76773 -0.072852,-0.13123 -0.1245549,-0.24582 -0.1148936,-0.25464 0.00966,-0.009 0.1597688,0.10871 0.333573,0.26117 0.5599669,0.49119 1.0089729,0.79214 1.577556,1.05735 1.7239448,0.80412 3.8217432,0.9304 6.2837052,0.37826 0.2543768,-0.057 0.4848578,-0.10358 0.5121888,-0.1034 0.02732,1.6e-4 -0.112185,0.0835 -0.310015,0.18522 -1.3946665,0.71695 -2.5543216,1.66727 -3.277636,2.68598 -0.2776413,0.39103 -0.273335,0.38773 -0.5018219,0.38513 -0.1058467,-0.001 -0.3241536,-0.0237 -0.4851308,-0.0501 z"
       id="path4349"
       inkscape:connector-curvature="0" />
    <path
       style="opacity:0;fill:#129547;fill-opacity:0.94117647;stroke:#00ff00;stroke-width:0.02796049"
       d="M 5.9287523,384.01083 C 5.5488212,383.94863 5.3431865,383.8982 4.924962,383.76457 4.2644205,383.55351 3.6000674,383.2669 3.1564963,383.00162 2.928843,382.86547 2.8117577,382.74971 2.8117577,382.66077 c 0,-0.15473 0.3567673,-0.45715 1.0711752,-0.908 0.4711729,-0.29735 0.5244832,-0.33956 0.5006006,-0.39636 -0.00837,-0.0199 -0.1382569,-0.0752 -0.2886328,-0.12283 -0.9416356,-0.29834 -1.715927,-0.92515 -2.1836741,-1.76773 -0.072852,-0.13123 -0.1245549,-0.24582 -0.1148936,-0.25464 0.00966,-0.009 0.1597688,0.10871 0.333573,0.26117 0.5599669,0.49119 1.0089729,0.79214 1.577556,1.05735 1.7239448,0.80412 3.8217432,0.9304 6.2837052,0.37826 0.2543768,-0.057 0.4848578,-0.10358 0.5121888,-0.1034 0.02732,1.6e-4 -0.112185,0.0835 -0.310015,0.18522 -1.3946665,0.71695 -2.5543216,1.66727 -3.277636,2.68598 -0.2776413,0.39103 -0.273335,0.38773 -0.5018219,0.38513 -0.1058467,-0.001 -0.3241536,-0.0237 -0.4851308,-0.0501 z"
       id="path4351"
       inkscape:connector-curvature="0" />
    <path
       style="opacity:0;fill:#129547;fill-opacity:0.94117647;stroke:#00ff00;stroke-width:0.02796049"
       d="M 5.9287523,384.01083 C 5.5488212,383.94863 5.3431865,383.8982 4.924962,383.76457 4.2644205,383.55351 3.6000674,383.2669 3.1564963,383.00162 2.928843,382.86547 2.8117577,382.74971 2.8117577,382.66077 c 0,-0.15473 0.3567673,-0.45715 1.0711752,-0.908 0.4711729,-0.29735 0.5244832,-0.33956 0.5006006,-0.39636 -0.00837,-0.0199 -0.1382569,-0.0752 -0.2886328,-0.12283 -0.9416356,-0.29834 -1.715927,-0.92515 -2.1836741,-1.76773 -0.072852,-0.13123 -0.1245549,-0.24582 -0.1148936,-0.25464 0.00966,-0.009 0.1597688,0.10871 0.333573,0.26117 0.5599669,0.49119 1.0089729,0.79214 1.577556,1.05735 1.7239448,0.80412 3.8217432,0.9304 6.2837052,0.37826 0.2543768,-0.057 0.4848578,-0.10358 0.5121888,-0.1034 0.02732,1.6e-4 -0.112185,0.0835 -0.310015,0.18522 -1.3946665,0.71695 -2.5543216,1.66727 -3.277636,2.68598 -0.2776413,0.39103 -0.273335,0.38773 -0.5018219,0.38513 -0.1058467,-0.001 -0.3241536,-0.0237 -0.4851308,-0.0501 z"
       id="path4353"
       inkscape:connector-curvature="0" />
    <path
       style="opacity:0;fill:#129547;fill-opacity:0.94117647;stroke:#00ff00;stroke-width:0.02796049"
       d="M 5.9287523,384.01083 C 5.5488212,383.94863 5.3431865,383.8982 4.924962,383.76457 4.2644205,383.55351 3.6000674,383.2669 3.1564963,383.00162 2.928843,382.86547 2.8117577,382.74971 2.8117577,382.66077 c 0,-0.15473 0.3567673,-0.45715 1.0711752,-0.908 0.4711729,-0.29735 0.5244832,-0.33956 0.5006006,-0.39636 -0.00837,-0.0199 -0.1382569,-0.0752 -0.2886328,-0.12283 -0.9416356,-0.29834 -1.715927,-0.92515 -2.1836741,-1.76773 -0.072852,-0.13123 -0.1245549,-0.24582 -0.1148936,-0.25464 0.00966,-0.009 0.1597688,0.10871 0.333573,0.26117 0.5599669,0.49119 1.0089729,0.79214 1.577556,1.05735 1.7239448,0.80412 3.8217432,0.9304 6.2837052,0.37826 0.2543768,-0.057 0.4848578,-0.10358 0.5121888,-0.1034 0.02732,1.6e-4 -0.112185,0.0835 -0.310015,0.18522 -1.3946665,0.71695 -2.5543216,1.66727 -3.277636,2.68598 -0.2776413,0.39103 -0.273335,0.38773 -0.5018219,0.38513 -0.1058467,-0.001 -0.3241536,-0.0237 -0.4851308,-0.0501 z"
       id="path4355"
       inkscape:connector-curvature="0" />
    <path
       style="opacity:0;fill:#129547;fill-opacity:0.94117647;stroke:#00ff00;stroke-width:0.02796049"
       d="M 5.9287523,384.01083 C 5.5488212,383.94863 5.3431865,383.8982 4.924962,383.76457 4.2644205,383.55351 3.6000674,383.2669 3.1564963,383.00162 2.928843,382.86547 2.8117577,382.74971 2.8117577,382.66077 c 0,-0.15473 0.3567673,-0.45715 1.0711752,-0.908 0.4711729,-0.29735 0.5244832,-0.33956 0.5006006,-0.39636 -0.00837,-0.0199 -0.1382569,-0.0752 -0.2886328,-0.12283 -0.9416356,-0.29834 -1.715927,-0.92515 -2.1836741,-1.76773 -0.072852,-0.13123 -0.1245549,-0.24582 -0.1148936,-0.25464 0.00966,-0.009 0.1597688,0.10871 0.333573,0.26117 0.5599669,0.49119 1.0089729,0.79214 1.577556,1.05735 1.7239448,0.80412 3.8217432,0.9304 6.2837052,0.37826 0.2543768,-0.057 0.4848578,-0.10358 0.5121888,-0.1034 0.02732,1.6e-4 -0.112185,0.0835 -0.310015,0.18522 -1.3946665,0.71695 -2.5543216,1.66727 -3.277636,2.68598 -0.2776413,0.39103 -0.273335,0.38773 -0.5018219,0.38513 -0.1058467,-0.001 -0.3241536,-0.0237 -0.4851308,-0.0501 z"
       id="path4357"
       inkscape:connector-curvature="0" />
    <path
       style="opacity:0;fill:#129547;fill-opacity:0.94117647;stroke:#00ff00;stroke-width:0.02796049"
       d="M 5.9287523,384.01083 C 5.5488212,383.94863 5.3431865,383.8982 4.924962,383.76457 4.2644205,383.55351 3.6000674,383.2669 3.1564963,383.00162 2.928843,382.86547 2.8117577,382.74971 2.8117577,382.66077 c 0,-0.15473 0.3567673,-0.45715 1.0711752,-0.908 0.4711729,-0.29735 0.5244832,-0.33956 0.5006006,-0.39636 -0.00837,-0.0199 -0.1382569,-0.0752 -0.2886328,-0.12283 -0.9416356,-0.29834 -1.715927,-0.92515 -2.1836741,-1.76773 -0.072852,-0.13123 -0.1245549,-0.24582 -0.1148936,-0.25464 0.00966,-0.009 0.1597688,0.10871 0.333573,0.26117 0.5599669,0.49119 1.0089729,0.79214 1.577556,1.05735 1.7239448,0.80412 3.8217432,0.9304 6.2837052,0.37826 0.2543768,-0.057 0.4848578,-0.10358 0.5121888,-0.1034 0.02732,1.6e-4 -0.112185,0.0835 -0.310015,0.18522 -1.3946665,0.71695 -2.5543216,1.66727 -3.277636,2.68598 -0.2776413,0.39103 -0.273335,0.38773 -0.5018219,0.38513 -0.1058467,-0.001 -0.3241536,-0.0237 -0.4851308,-0.0501 z"
       id="path4359"
       inkscape:connector-curvature="0" />
    <path
       style="opacity:0;fill:#129547;fill-opacity:0.94117647;stroke:#00ff00;stroke-width:0.02796049"
       d="M 5.9287523,384.01083 C 5.5488212,383.94863 5.3431865,383.8982 4.924962,383.76457 4.2644205,383.55351 3.6000674,383.2669 3.1564963,383.00162 2.928843,382.86547 2.8117577,382.74971 2.8117577,382.66077 c 0,-0.15473 0.3567673,-0.45715 1.0711752,-0.908 0.4711729,-0.29735 0.5244832,-0.33956 0.5006006,-0.39636 -0.00837,-0.0199 -0.1382569,-0.0752 -0.2886328,-0.12283 -0.9416356,-0.29834 -1.715927,-0.92515 -2.1836741,-1.76773 -0.072852,-0.13123 -0.1245549,-0.24582 -0.1148936,-0.25464 0.00966,-0.009 0.1597688,0.10871 0.333573,0.26117 0.5599669,0.49119 1.0089729,0.79214 1.577556,1.05735 1.7239448,0.80412 3.8217432,0.9304 6.2837052,0.37826 0.2543768,-0.057 0.4848578,-0.10358 0.5121888,-0.1034 0.02732,1.6e-4 -0.112185,0.0835 -0.310015,0.18522 -1.3946665,0.71695 -2.5543216,1.66727 -3.277636,2.68598 -0.2776413,0.39103 -0.273335,0.38773 -0.5018219,0.38513 -0.1058467,-0.001 -0.3241536,-0.0237 -0.4851308,-0.0501 z"
       id="path4361"
       inkscape:connector-curvature="0" />
    <path
       style="opacity:0;fill:#129547;fill-opacity:0.94117647;stroke:#00ff00;stroke-width:0.02796049"
       d="M 5.9287523,384.01083 C 5.5488212,383.94863 5.3431865,383.8982 4.924962,383.76457 4.2644205,383.55351 3.6000674,383.2669 3.1564963,383.00162 2.928843,382.86547 2.8117577,382.74971 2.8117577,382.66077 c 0,-0.15473 0.3567673,-0.45715 1.0711752,-0.908 0.4711729,-0.29735 0.5244832,-0.33956 0.5006006,-0.39636 -0.00837,-0.0199 -0.1382569,-0.0752 -0.2886328,-0.12283 -0.9416356,-0.29834 -1.715927,-0.92515 -2.1836741,-1.76773 -0.072852,-0.13123 -0.1245549,-0.24582 -0.1148936,-0.25464 0.00966,-0.009 0.1597688,0.10871 0.333573,0.26117 0.5599669,0.49119 1.0089729,0.79214 1.577556,1.05735 1.7239448,0.80412 3.8217432,0.9304 6.2837052,0.37826 0.2543768,-0.057 0.4848578,-0.10358 0.5121888,-0.1034 0.02732,1.6e-4 -0.112185,0.0835 -0.310015,0.18522 -1.3946665,0.71695 -2.5543216,1.66727 -3.277636,2.68598 -0.2776413,0.39103 -0.273335,0.38773 -0.5018219,0.38513 -0.1058467,-0.001 -0.3241536,-0.0237 -0.4851308,-0.0501 z"
       id="path4363"
       inkscape:connector-curvature="0" />
    <path
       style="opacity:0;fill:#129547;fill-opacity:0.94117647;stroke:#00ff00;stroke-width:0.02796049"
       d="M 5.9287523,384.01083 C 5.5488212,383.94863 5.3431865,383.8982 4.924962,383.76457 4.2644205,383.55351 3.6000674,383.2669 3.1564963,383.00162 2.928843,382.86547 2.8117577,382.74971 2.8117577,382.66077 c 0,-0.15473 0.3567673,-0.45715 1.0711752,-0.908 0.4711729,-0.29735 0.5244832,-0.33956 0.5006006,-0.39636 -0.00837,-0.0199 -0.1382569,-0.0752 -0.2886328,-0.12283 -0.9416356,-0.29834 -1.715927,-0.92515 -2.1836741,-1.76773 -0.072852,-0.13123 -0.1245549,-0.24582 -0.1148936,-0.25464 0.00966,-0.009 0.1597688,0.10871 0.333573,0.26117 0.5599669,0.49119 1.0089729,0.79214 1.577556,1.05735 1.7239448,0.80412 3.8217432,0.9304 6.2837052,0.37826 0.2543768,-0.057 0.4848578,-0.10358 0.5121888,-0.1034 0.02732,1.6e-4 -0.112185,0.0835 -0.310015,0.18522 -1.3946665,0.71695 -2.5543216,1.66727 -3.277636,2.68598 -0.2776413,0.39103 -0.273335,0.38773 -0.5018219,0.38513 -0.1058467,-0.001 -0.3241536,-0.0237 -0.4851308,-0.0501 z"
       id="path4365"
       inkscape:connector-curvature="0" />
    <path
       style="opacity:0;fill:#129547;fill-opacity:0.94117647;stroke:#00ff00;stroke-width:0.02796049"
       d="M 5.9287523,384.01083 C 5.5488212,383.94863 5.3431865,383.8982 4.924962,383.76457 4.2644205,383.55351 3.6000674,383.2669 3.1564963,383.00162 2.928843,382.86547 2.8117577,382.74971 2.8117577,382.66077 c 0,-0.15473 0.3567673,-0.45715 1.0711752,-0.908 0.4711729,-0.29735 0.5244832,-0.33956 0.5006006,-0.39636 -0.00837,-0.0199 -0.1382569,-0.0752 -0.2886328,-0.12283 -0.9416356,-0.29834 -1.715927,-0.92515 -2.1836741,-1.76773 -0.072852,-0.13123 -0.1245549,-0.24582 -0.1148936,-0.25464 0.00966,-0.009 0.1597688,0.10871 0.333573,0.26117 0.5599669,0.49119 1.0089729,0.79214 1.577556,1.05735 1.7239448,0.80412 3.8217432,0.9304 6.2837052,0.37826 0.2543768,-0.057 0.4848578,-0.10358 0.5121888,-0.1034 0.02732,1.6e-4 -0.112185,0.0835 -0.310015,0.18522 -1.3946665,0.71695 -2.5543216,1.66727 -3.277636,2.68598 -0.2776413,0.39103 -0.273335,0.38773 -0.5018219,0.38513 -0.1058467,-0.001 -0.3241536,-0.0237 -0.4851308,-0.0501 z"
       id="path4367"
       inkscape:connector-curvature="0" />
  </g>
</svg>
